<svg xmlns="http://www.w3.org/2000/svg" xmlns:xlink="http://www.w3.org/1999/xlink" width="1080" zoomAndPan="magnify" viewBox="0 0 810 809.999993" height="1080" preserveAspectRatio="xMidYMid meet" version="1.0"><defs><g></g><clipPath id="fc0e405f2c"><path d="M 585.328125 446.726562 L 650.828125 446.726562 L 650.828125 536.695312 L 585.328125 536.695312 Z M 585.328125 446.726562 " clip-rule="nonzero"></path></clipPath><clipPath id="4a2504a8aa"><path d="M 627.578125 446.90625 C 623.050781 447.148438 618.035156 448.191406 612.480469 450.199219 C 601.542969 454.15625 592.382812 461.671875 587.195312 470.9375 C 583.382812 490.390625 584.644531 522.046875 605.757812 533.886719 C 607.785156 535.019531 609.917969 535.945312 612.113281 536.695312 C 633.121094 535.289062 650.089844 515.335938 650.652344 490.519531 C 651.089844 471.324219 641.585938 454.597656 627.578125 446.90625 Z M 627.578125 446.90625 " clip-rule="nonzero"></path></clipPath><clipPath id="d880c592d2"><path d="M 0.359375 0.878906 L 65.828125 0.878906 L 65.828125 90.695312 L 0.359375 90.695312 Z M 0.359375 0.878906 " clip-rule="nonzero"></path></clipPath><clipPath id="36c136c53e"><path d="M 42.578125 0.90625 C 38.050781 1.148438 33.035156 2.191406 27.480469 4.199219 C 16.542969 8.15625 7.382812 15.671875 2.195312 24.9375 C -1.617188 44.390625 -0.355469 76.046875 20.757812 87.886719 C 22.785156 89.019531 24.917969 89.945312 27.113281 90.695312 C 48.121094 89.289062 65.089844 69.335938 65.652344 44.519531 C 66.089844 25.324219 56.585938 8.597656 42.578125 0.90625 Z M 42.578125 0.90625 " clip-rule="nonzero"></path></clipPath><clipPath id="c81eb5ab23"><rect x="0" width="66" y="0" height="91"></rect></clipPath><clipPath id="01c50fb58f"><path d="M 38.808594 302.179688 L 700.917969 302.179688 L 700.917969 810 L 38.808594 810 Z M 38.808594 302.179688 " clip-rule="nonzero"></path></clipPath><clipPath id="0d7546362a"><path d="M 38.808594 821.574219 C 46.125 716.496094 110.972656 591.65625 165.183594 506.289062 C 165.183594 506.289062 138.050781 501.445312 129.152344 483.363281 C 136.261719 475.964844 153.441406 463.859375 163.011719 460.148438 L 162.234375 459.210938 C 171.472656 440.371094 181.066406 421.457031 194.714844 405.523438 C 198.652344 400.929688 203.386719 397.804688 203.386719 397.804688 C 202.984375 398.886719 265.390625 289.222656 448.574219 303.457031 C 524.957031 309.390625 584.722656 346.488281 600.570312 359.328125 C 614.585938 363.679688 644.238281 367.074219 663.820312 448.980469 C 664.847656 453.261719 684.90625 464.464844 688.949219 475.273438 C 667.554688 518.136719 615.972656 480.671875 615.972656 480.671875 C 611.011719 530.519531 702.601562 573.484375 700.824219 651.988281 C 699.914062 692.035156 678.195312 721.832031 641.277344 749.226562 L 625.527344 761.226562 C 625.527344 761.226562 624.027344 821.984375 624.703125 821.574219 " clip-rule="nonzero"></path></clipPath><clipPath id="e2c362f538"><path d="M 0.808594 0.179688 L 662.917969 0.179688 L 662.917969 508 L 0.808594 508 Z M 0.808594 0.179688 " clip-rule="nonzero"></path></clipPath><clipPath id="dbe004db31"><path d="M 0.808594 519.574219 C 8.125 414.496094 72.972656 289.65625 127.183594 204.289062 C 127.183594 204.289062 100.050781 199.445312 91.152344 181.363281 C 98.261719 173.964844 115.441406 161.859375 125.011719 158.148438 L 124.234375 157.210938 C 133.472656 138.371094 143.066406 119.457031 156.714844 103.523438 C 160.652344 98.929688 165.386719 95.804688 165.386719 95.804688 C 164.984375 96.886719 227.390625 -12.777344 410.574219 1.457031 C 486.957031 7.390625 546.722656 44.488281 562.570312 57.328125 C 576.585938 61.679688 606.238281 65.074219 625.820312 146.980469 C 626.847656 151.261719 646.90625 162.464844 650.949219 173.273438 C 629.554688 216.136719 577.972656 178.671875 577.972656 178.671875 C 573.011719 228.519531 664.601562 271.484375 662.824219 349.988281 C 661.914062 390.035156 640.195312 419.832031 603.277344 447.226562 L 587.527344 459.226562 C 587.527344 459.226562 586.027344 519.984375 586.703125 519.574219 " clip-rule="nonzero"></path></clipPath><clipPath id="b51c9d6df0"><rect x="0" width="663" y="0" height="508"></rect></clipPath><clipPath id="c426df3e7f"><path d="M 226.507812 578.292969 L 557.257812 578.292969 L 557.257812 790.542969 L 226.507812 790.542969 Z M 226.507812 578.292969 " clip-rule="nonzero"></path></clipPath><clipPath id="996b4e6116"><path d="M 122.371094 369.597656 L 255.871094 369.597656 L 255.871094 512.847656 L 122.371094 512.847656 Z M 122.371094 369.597656 " clip-rule="nonzero"></path></clipPath><clipPath id="2d30e6439c"><path d="M 589.875 352.839844 L 695.625 352.839844 L 695.625 505.839844 L 589.875 505.839844 Z M 589.875 352.839844 " clip-rule="nonzero"></path></clipPath><clipPath id="162be3d785"><path d="M 543.8125 483.433594 L 707.3125 483.433594 L 707.3125 775.183594 L 543.8125 775.183594 Z M 543.8125 483.433594 " clip-rule="nonzero"></path></clipPath><clipPath id="77836dd4c7"><path d="M 140.710938 656.308594 L 340.960938 656.308594 L 340.960938 723.058594 L 140.710938 723.058594 Z M 140.710938 656.308594 " clip-rule="nonzero"></path></clipPath><clipPath id="3df0f148f4"><path d="M 123.886719 616.332031 L 342.886719 616.332031 L 342.886719 665.832031 L 123.886719 665.832031 Z M 123.886719 616.332031 " clip-rule="nonzero"></path></clipPath><clipPath id="49d67e5e53"><path d="M 650.777344 647.761719 L 764.777344 647.761719 L 764.777344 704.761719 L 650.777344 704.761719 Z M 650.777344 647.761719 " clip-rule="nonzero"></path></clipPath><clipPath id="c4894dc000"><path d="M 648.648438 615.234375 L 777.648438 615.234375 L 777.648438 641.484375 L 648.648438 641.484375 Z M 648.648438 615.234375 " clip-rule="nonzero"></path></clipPath><clipPath id="ad3c28e901"><path d="M 493.011719 660.292969 L 620.511719 660.292969 L 620.511719 711.292969 L 493.011719 711.292969 Z M 493.011719 660.292969 " clip-rule="nonzero"></path></clipPath><clipPath id="e9700dea5b"><path d="M 543.710938 698.253906 L 569.960938 698.253906 L 569.960938 774 L 543.710938 774 Z M 543.710938 698.253906 " clip-rule="nonzero"></path></clipPath><clipPath id="81a65674ea"><path d="M 302.921875 442.585938 L 393.914062 442.585938 L 393.914062 529.625 L 302.921875 529.625 Z M 302.921875 442.585938 " clip-rule="nonzero"></path></clipPath><clipPath id="1860402e5b"><path d="M 349.445312 529.523438 C 341.148438 529.523438 332.945312 527.710938 325.730469 524.285156 C 301.175781 512.621094 300.945312 482.132812 304.679688 465.957031 L 304.863281 465.164062 L 305.3125 464.488281 C 311.035156 455.820312 321.132812 448.773438 333.007812 445.148438 C 338.578125 443.445312 343.972656 442.585938 349.042969 442.585938 C 361.65625 442.585938 372.660156 447.929688 380.863281 458.042969 C 391.859375 471.597656 395.25 490.535156 393.46875 498.996094 C 391.488281 508.398438 385.867188 516.296875 377.21875 521.832031 C 369.464844 526.792969 359.601562 529.523438 349.445312 529.523438 Z M 349.445312 529.523438 " clip-rule="nonzero"></path></clipPath><clipPath id="6a19dde665"><path d="M 0.921875 0.585938 L 91.914062 0.585938 L 91.914062 87.625 L 0.921875 87.625 Z M 0.921875 0.585938 " clip-rule="nonzero"></path></clipPath><clipPath id="c486185c03"><path d="M 47.445312 87.523438 C 39.148438 87.523438 30.945312 85.710938 23.730469 82.285156 C -0.824219 70.621094 -1.054688 40.132812 2.679688 23.957031 L 2.863281 23.164062 L 3.3125 22.488281 C 9.035156 13.820312 19.132812 6.773438 31.007812 3.148438 C 36.578125 1.445312 41.972656 0.585938 47.042969 0.585938 C 59.65625 0.585938 70.660156 5.929688 78.863281 16.042969 C 89.859375 29.597656 93.25 48.535156 91.46875 56.996094 C 89.488281 66.398438 83.867188 74.296875 75.21875 79.832031 C 67.464844 84.792969 57.601562 87.523438 47.445312 87.523438 Z M 47.445312 87.523438 " clip-rule="nonzero"></path></clipPath><clipPath id="5c33326df0"><rect x="0" width="92" y="0" height="88"></rect></clipPath><clipPath id="cc6542c40f"><path d="M 298.417969 438.085938 L 398.167969 438.085938 L 398.167969 534.085938 L 298.417969 534.085938 Z M 298.417969 438.085938 " clip-rule="nonzero"></path></clipPath><clipPath id="6d5ea900cf"><path d="M 307.371094 446.660156 L 376.03125 446.660156 L 376.03125 522.691406 L 307.371094 522.691406 Z M 307.371094 446.660156 " clip-rule="nonzero"></path></clipPath><clipPath id="42523f6c2c"><path d="M 349.410156 446.660156 C 344.882812 446.859375 339.867188 447.742188 334.316406 449.4375 C 323.382812 452.773438 314.226562 459.125 309.046875 466.964844 C 305.246094 483.417969 306.527344 510.203125 327.648438 520.234375 C 329.675781 521.199219 331.808594 521.980469 334.007812 522.617188 C 356.367188 522.792969 372.742188 509.265625 375.664062 488.453125 C 377.96875 472.027344 369.449219 447.375 349.410156 446.660156 Z M 349.410156 446.660156 " clip-rule="nonzero"></path></clipPath><clipPath id="c92e048545"><path d="M 0.371094 0.660156 L 69.03125 0.660156 L 69.03125 76.691406 L 0.371094 76.691406 Z M 0.371094 0.660156 " clip-rule="nonzero"></path></clipPath><clipPath id="c2c1e841fd"><path d="M 42.410156 0.660156 C 37.882812 0.859375 32.867188 1.742188 27.316406 3.4375 C 16.382812 6.773438 7.226562 13.125 2.046875 20.964844 C -1.753906 37.417969 -0.472656 64.203125 20.648438 74.234375 C 22.675781 75.199219 24.808594 75.980469 27.007812 76.617188 C 49.367188 76.792969 65.742188 63.265625 68.664062 42.453125 C 70.96875 26.027344 62.449219 1.375 42.410156 0.660156 Z M 42.410156 0.660156 " clip-rule="nonzero"></path></clipPath><clipPath id="e1f0a25d86"><rect x="0" width="70" y="0" height="77"></rect></clipPath><clipPath id="4c30374972"><path d="M 348.398438 458.175781 L 360.398438 458.175781 L 360.398438 470.925781 L 348.398438 470.925781 Z M 348.398438 458.175781 " clip-rule="nonzero"></path></clipPath><clipPath id="9f2f6f7d17"><path d="M 0 234.390625 L 768.9375 234.390625 L 768.9375 810 L 0 810 Z M 0 234.390625 " clip-rule="nonzero"></path></clipPath><clipPath id="03e9f89036"><path d="M 392.582031 285.785156 L 531.171875 285.785156 L 531.171875 327 L 392.582031 327 Z M 392.582031 285.785156 " clip-rule="nonzero"></path></clipPath><clipPath id="681b7344a4"><path d="M 523.5 326.996094 C 526.109375 320.910156 531.609375 310.800781 531.132812 310.585938 C 514.691406 303.085938 488.359375 305.292969 483.335938 305.824219 C 483.089844 305.882812 488.0625 290.277344 488.0625 290.277344 C 488.132812 288.027344 448.421875 286.078125 426.320312 297.417969 C 426.320312 297.417969 395.375 284.300781 393.648438 285.925781 C 392.105469 287.378906 393 309.742188 393 309.742188 " clip-rule="nonzero"></path></clipPath><clipPath id="05a03f1e0a"><path d="M 0.640625 0.785156 L 139.171875 0.785156 L 139.171875 42 L 0.640625 42 Z M 0.640625 0.785156 " clip-rule="nonzero"></path></clipPath><clipPath id="45e8fe9d3c"><path d="M 131.5 41.996094 C 134.109375 35.910156 139.609375 25.800781 139.132812 25.585938 C 122.691406 18.085938 96.359375 20.292969 91.335938 20.824219 C 91.089844 20.882812 96.0625 5.277344 96.0625 5.277344 C 96.132812 3.027344 56.421875 1.078125 34.320312 12.417969 C 34.320312 12.417969 3.375 -0.699219 1.648438 0.925781 C 0.105469 2.378906 1 24.742188 1 24.742188 " clip-rule="nonzero"></path></clipPath><clipPath id="fb5b4e2492"><rect x="0" width="140" y="0" height="42"></rect></clipPath><clipPath id="5de782b488"><path d="M 317.320312 210.382812 L 606.820312 210.382812 L 606.820312 403.132812 L 317.320312 403.132812 Z M 317.320312 210.382812 " clip-rule="nonzero"></path></clipPath></defs><g clip-path="url(#fc0e405f2c)"><g clip-path="url(#4a2504a8aa)"><g transform="matrix(1, 0, 0, 1, 585, 446)"><g clip-path="url(#c81eb5ab23)"><g clip-path="url(#d880c592d2)"><g clip-path="url(#36c136c53e)"><path fill="#000000" d="M 0.507812 0.90625 L 65.648438 0.90625 L 65.648438 90.695312 L 0.507812 90.695312 Z M 0.507812 0.90625 " fill-opacity="1" fill-rule="nonzero"></path></g></g></g></g></g></g><g clip-path="url(#01c50fb58f)"><g clip-path="url(#0d7546362a)"><g transform="matrix(1, 0, 0, 1, 38, 302)"><g clip-path="url(#b51c9d6df0)"><g clip-path="url(#e2c362f538)"><g clip-path="url(#dbe004db31)"><path fill="#a85d2a" d="M 0.808594 0.179688 L 662.917969 0.179688 L 662.917969 519.574219 L 0.808594 519.574219 Z M 0.808594 0.179688 " fill-opacity="1" fill-rule="nonzero"></path></g></g></g></g></g></g><g clip-path="url(#c426df3e7f)"><path stroke-linecap="round" transform="matrix(0.750195, 0, 0, 0.750106, 550.499856, 622.004821)" fill="none" stroke-linejoin="round" d="M 0.00019221 194.012997 C -113.048615 243.443504 -267.112826 201.28801 -358.922349 141.754766 C -420.250194 101.989559 -446.503802 11.090962 -397.464437 -49.431725 " stroke="#000000" stroke-width="17.68" stroke-opacity="1" stroke-miterlimit="10"></path></g><g clip-path="url(#996b4e6116)"><path stroke-linecap="round" transform="matrix(0.748629, 0, 0, 0.748902, 249.019357, 447.420669)" fill="none" stroke-linejoin="round" d="M 0.00023333 -12.667978 C -0.57895 5.374057 -3.245281 25.883246 -15.507273 39.137022 C -33.748944 58.858599 -64.800482 71.75769 -91.150721 77.004954 C -117.495741 82.247003 -148.307258 71.929817 -160.167474 47.826826 C -150.691824 37.963429 -127.785379 21.825222 -115.032907 16.875268 L -116.066045 15.623436 C -103.751874 -9.491453 -91.223771 -34.934948 -72.76295 -55.950086 C -54.30213 -76.965223 -28.875454 -93.379876 -0.944201 -94.918587 " stroke="#000000" stroke-width="18" stroke-opacity="1" stroke-miterlimit="10"></path></g><g clip-path="url(#2d30e6439c)"><path stroke-linecap="round" transform="matrix(0.749362, 0, 0, 0.750864, 596.647773, 437.797534)" fill="none" stroke-linejoin="round" d="M 0.000886109 -18.157052 C -0.296242 0.737855 0.944397 22.301564 9.993759 36.670433 C 23.458333 58.05206 47.228546 72.831915 67.636525 79.407676 C 88.049717 85.983436 112.59142 76.473555 122.88142 51.752024 C 115.865037 41.040401 98.605568 23.211974 88.826419 17.510207 L 89.686526 16.240835 C 81.085462 -10.535621 72.333228 -37.665836 58.753972 -60.410477 C 45.169504 -83.155117 25.950035 -101.37372 4.150248 -104.141366 " stroke="#000000" stroke-width="18" stroke-opacity="1" stroke-miterlimit="10"></path></g><g clip-path="url(#162be3d785)"><path stroke-linecap="round" transform="matrix(0.748626, 0, 0, 0.749456, 631.533716, 770.836973)" fill="none" stroke-linejoin="round" d="M 0.00192422 -374.637664 C -7.031791 -310.523458 94.550087 -267.690311 92.259433 -166.689979 C 91.095844 -115.163026 62.86706 -65.085041 17.8158 -32.540606 C -27.240678 -0.00138196 -50.05851 -1.54938 -108.331903 -4.744405 " stroke="#000000" stroke-width="17.68" stroke-opacity="1" stroke-miterlimit="10"></path></g><g clip-path="url(#77836dd4c7)"><path stroke-linecap="round" transform="matrix(-0.726343, 0.188719, 0.187846, 0.729718, 154.965128, 726.880519)" fill="none" stroke-linejoin="round" d="M -250.873557 -16.146051 C -175.392686 -52.491603 -78.801095 -62.959761 6.133557 -16.148884 " stroke="#000000" stroke-width="18" stroke-opacity="1" stroke-miterlimit="10"></path></g><g clip-path="url(#3df0f148f4)"><path stroke-linecap="round" transform="matrix(-0.745761, 0.0708243, 0.0704806, 0.749398, 130.764782, 642.01986)" fill="none" stroke-linejoin="round" d="M -273.179616 22.288411 C -181.791688 -16.268342 -78.351574 -31.606039 2.272807 22.287194 " stroke="#000000" stroke-width="18" stroke-opacity="1" stroke-miterlimit="10"></path></g><g clip-path="url(#49d67e5e53)"><path stroke-linecap="round" transform="matrix(0.687968, 0.294926, 0.293505, -0.691299, 669.421962, 636.616452)" fill="none" stroke-linejoin="round" d="M -5.145399 -28.505373 C 30.919993 -9.191785 98.075045 -5.522966 140.868359 -28.504243 " stroke="#000000" stroke-width="18" stroke-opacity="1" stroke-miterlimit="10"></path></g><g clip-path="url(#c4894dc000)"><path stroke-linecap="round" transform="matrix(0.750371, 0.021743, 0.0216384, -0.753997, 655.265131, 629.62914)" fill="none" stroke-linejoin="round" d="M 0.251939 -2.214956 C 46.574652 13.78749 102.528836 20.374538 154.076944 -2.213807 " stroke="#000000" stroke-width="18" stroke-opacity="1" stroke-miterlimit="10"></path></g><g clip-path="url(#ad3c28e901)"><path stroke-linecap="round" transform="matrix(0.750353, 0, 0, 0.74822, 499.766474, 698.292297)" fill="none" stroke-linejoin="round" d="M -0.00113194 -33.312535 C 14.450399 -30.660408 25.74196 -19.832629 37.647815 -11.223656 C 45.087021 -5.851533 53.052023 -1.205089 61.391847 2.621701 C 68.086613 5.691486 75.192643 8.265302 82.553762 8.338393 C 97.166676 8.479352 110.030413 -1.147661 120.155855 -11.68308 C 130.281298 -22.218499 139.219799 -34.335797 151.786801 -41.785769 " stroke="#000000" stroke-width="18" stroke-opacity="1" stroke-miterlimit="10"></path></g><g clip-path="url(#e9700dea5b)"><path stroke-linecap="round" transform="matrix(0.143117, -0.735775, -0.735346, -0.143201, 587.079574, 749.47071)" fill="none" stroke-linejoin="round" d="M -32.535362 43.476232 C -15.558829 38.90242 26.27998 34.328098 51.974489 43.472364 " stroke="#000000" stroke-width="18" stroke-opacity="1" stroke-miterlimit="10"></path></g><g clip-path="url(#81a65674ea)"><g clip-path="url(#1860402e5b)"><g transform="matrix(1, 0, 0, 1, 302, 442)"><g clip-path="url(#5c33326df0)"><g clip-path="url(#6a19dde665)"><g clip-path="url(#c486185c03)"><path fill="#ffffff" d="M 0.921875 0.585938 L 91.914062 0.585938 L 91.914062 87.445312 L 0.921875 87.445312 Z M 0.921875 0.585938 " fill-opacity="1" fill-rule="nonzero"></path></g></g></g></g></g></g><g clip-path="url(#cc6542c40f)"><path fill="#000000" d="M 348.878906 438.085938 L 348.875 438.085938 C 343.378906 438.085938 337.5625 439.015625 331.59375 440.84375 C 318.78125 444.769531 307.839844 452.484375 301.570312 462.011719 L 300.679688 463.367188 L 300.316406 464.949219 C 297.792969 475.90625 297.789062 488.019531 300.304688 498.179688 C 303.792969 512.28125 311.890625 522.71875 323.726562 528.363281 C 331.515625 532.078125 340.351562 534.042969 349.277344 534.042969 C 360.242188 534.042969 370.921875 531.054688 379.359375 525.636719 C 389.011719 519.433594 395.289062 510.546875 397.515625 499.933594 C 399.761719 489.21875 395.253906 469.070312 384.054688 455.207031 C 375.003906 444.007812 362.839844 438.085938 348.878906 438.085938 M 348.875 447.089844 C 381.476562 447.085938 391.199219 486.339844 388.738281 498.078125 C 385.105469 515.398438 367.617188 525.035156 349.277344 525.035156 C 341.898438 525.035156 334.382812 523.476562 327.574219 520.230469 C 306.546875 510.199219 305.269531 483.425781 309.054688 466.976562 C 314.210938 459.140625 323.324219 452.792969 334.210938 449.457031 C 339.542969 447.824219 344.425781 447.089844 348.875 447.089844 " fill-opacity="1" fill-rule="nonzero"></path></g><g clip-path="url(#6d5ea900cf)"><g clip-path="url(#42523f6c2c)"><g transform="matrix(1, 0, 0, 1, 307, 446)"><g clip-path="url(#e1f0a25d86)"><g clip-path="url(#c92e048545)"><g clip-path="url(#c2c1e841fd)"><path fill="#000000" d="M 0.371094 0.660156 L 69.03125 0.660156 L 69.03125 76.691406 L 0.371094 76.691406 Z M 0.371094 0.660156 " fill-opacity="1" fill-rule="nonzero"></path></g></g></g></g></g></g><g clip-path="url(#4c30374972)"><path fill="#ffffff" d="M 360.253906 464.542969 C 360.253906 468.058594 357.601562 470.910156 354.328125 470.910156 C 351.054688 470.910156 348.398438 468.058594 348.398438 464.542969 C 348.398438 461.027344 351.054688 458.175781 354.328125 458.175781 C 357.601562 458.175781 360.253906 461.027344 360.253906 464.542969 " fill-opacity="1" fill-rule="nonzero"></path></g><g clip-path="url(#9f2f6f7d17)"><path stroke-linecap="butt" transform="matrix(0.750226, 0, 0, 0.750034, 38.801933, 291.933461)" fill="none" stroke-linejoin="miter" d="M -0.00153476 706.181416 C 12.156268 571.911516 96.209119 399.653771 168.479056 285.841268 C 168.479056 285.841268 132.312847 279.388439 120.446623 255.280166 C 129.928147 245.416034 152.832719 229.276147 165.589299 224.328457 L 164.553153 223.078514 C 176.867158 197.959872 189.660187 172.747483 207.85784 151.503663 C 213.101055 145.378943 219.416864 141.212467 219.416864 141.212467 C 218.880567 142.65511 302.079509 -3.546536 546.302949 15.426554 C 648.131706 23.337651 727.810872 72.79893 748.939936 89.917939 C 767.627025 95.714548 807.162013 100.245591 833.268746 209.438513 C 834.632919 215.146585 861.380085 230.083402 866.76909 244.494201 C 838.241209 301.642629 781.628024 259.795585 781.628024 259.795585 C 782.658964 326.719607 883.212062 361.728422 882.597664 480.087592 C 882.316498 533.491399 844.213372 577.728959 806.880847 607.175528 L 782.268456 625.440318 C 782.211182 625.726763 779.342253 692.879941 779.342253 709.728129 " stroke="#000000" stroke-width="18" stroke-opacity="1" stroke-miterlimit="10"></path></g><g clip-path="url(#03e9f89036)"><g clip-path="url(#681b7344a4)"><g transform="matrix(1, 0, 0, 1, 392, 285)"><g clip-path="url(#fb5b4e2492)"><g clip-path="url(#05a03f1e0a)"><g clip-path="url(#45e8fe9d3c)"><path fill="#a85d2a" d="M 0.742188 0.785156 L 139.171875 0.785156 L 139.171875 41.996094 L 0.742188 41.996094 Z M 0.742188 0.785156 " fill-opacity="1" fill-rule="nonzero"></path></g></g></g></g></g></g><g clip-path="url(#5de782b488)"><path stroke-linecap="butt" transform="matrix(0.750613, 0, 0, 0.749883, 525.873601, 284.257916)" fill="none" stroke-linejoin="miter" d="M 0.00186375 57.925542 C 0.00186375 57.925542 7.813192 35.333485 7.17309 35.041773 C -14.746507 25.045426 -49.85325 27.988592 -56.550905 28.697036 C -56.878762 28.780382 -50.248761 7.969852 -50.248761 7.969852 C -50.160291 4.969385 -103.106631 2.370022 -132.572148 17.486958 C -132.572148 17.486958 -173.830117 -0.000138154 -176.130322 2.166866 C -178.191139 4.104667 -176.999404 33.921807 -176.999404 33.921807 " stroke="#000000" stroke-width="20" stroke-opacity="1" stroke-miterlimit="10"></path></g><g fill="#000000" fill-opacity="1"><g transform="translate(252.803986, 170.079014)"><g><path d="M 63.3125 -52.609375 C 61.28125 -55.410156 58.65625 -57.5625 55.4375 -59.0625 C 52.21875 -60.5625 48.820312 -61.3125 45.25 -61.3125 C 39.164062 -61.3125 34.128906 -59.25 30.140625 -55.125 C 26.148438 -51 24.15625 -45.75 24.15625 -39.375 C 24.15625 -33.070312 26.128906 -27.90625 30.078125 -23.875 C 34.035156 -19.851562 39.195312 -17.84375 45.5625 -17.84375 C 48.925781 -17.84375 52.164062 -18.578125 55.28125 -20.046875 C 58.394531 -21.523438 61.070312 -23.59375 63.3125 -26.25 L 63.3125 -1.578125 C 59.675781 -0.453125 56.421875 0.4375 53.546875 1.09375 C 50.679688 1.757812 47.882812 2.09375 45.15625 2.09375 C 34.09375 2.09375 24.253906 -1.734375 15.640625 -9.390625 C 7.035156 -17.054688 2.734375 -27.085938 2.734375 -39.484375 C 2.734375 -47.109375 4.617188 -54.140625 8.390625 -60.578125 C 12.171875 -67.023438 17.316406 -72.082031 23.828125 -75.75 C 30.335938 -79.425781 37.234375 -81.265625 44.515625 -81.265625 C 50.398438 -81.265625 56.664062 -79.9375 63.3125 -77.28125 Z M 63.3125 -52.609375 "></path></g></g></g><g fill="#000000" fill-opacity="1"><g transform="translate(322.104035, 170.079014)"><g><path d="M 52.5 -79.171875 L 82.3125 0 L 60.375 0 L 55.234375 -13.75 L 26.875 -13.75 L 21.421875 0 L -0.421875 0 L 30.03125 -79.171875 Z M 32.546875 -29.5 L 49.671875 -29.5 L 41.265625 -54.703125 L 41.0625 -54.703125 Z M 32.546875 -29.5 "></path></g></g></g><g fill="#000000" fill-opacity="1"><g transform="translate(404.109097, 170.079014)"><g><path d="M 38.640625 -79.171875 C 47.597656 -79.171875 54.5625 -76.945312 59.53125 -72.5 C 64.5 -68.050781 66.984375 -61.59375 66.984375 -53.125 C 66.984375 -35.207031 57.816406 -26.25 39.484375 -26.25 L 27.296875 -26.25 L 27.296875 0 L 6.71875 0 L 6.71875 -79.171875 Z M 27.296875 -42.84375 L 31.703125 -42.84375 C 35.765625 -42.84375 38.617188 -43.140625 40.265625 -43.734375 C 41.910156 -44.328125 43.203125 -45.304688 44.140625 -46.671875 C 45.085938 -48.035156 45.5625 -49.976562 45.5625 -52.5 C 45.5625 -55.15625 45.109375 -57.179688 44.203125 -58.578125 C 43.296875 -59.984375 42 -61 40.3125 -61.625 C 38.632812 -62.257812 35.242188 -62.578125 30.140625 -62.578125 L 27.296875 -62.578125 Z M 27.296875 -42.84375 "></path></g></g></g><g fill="#000000" fill-opacity="1"><g transform="translate(473.514134, 170.079014)"><g><path d="M 26.875 -79.171875 L 26.875 -36.75 C 26.875 -31.21875 27.328125 -27.117188 28.234375 -24.453125 C 29.148438 -21.796875 30.601562 -19.710938 32.59375 -18.203125 C 34.59375 -16.703125 37.34375 -15.953125 40.84375 -15.953125 C 45.53125 -15.953125 49.03125 -17.441406 51.34375 -20.421875 C 53.65625 -23.398438 54.8125 -28.804688 54.8125 -36.640625 L 54.8125 -79.171875 L 75.390625 -79.171875 L 75.390625 -33.703125 C 75.390625 -24.671875 74.234375 -17.84375 71.921875 -13.21875 C 69.609375 -8.601562 65.789062 -4.894531 60.46875 -2.09375 C 55.15625 0.695312 48.613281 2.09375 40.84375 2.09375 C 33.351562 2.09375 26.945312 0.800781 21.625 -1.78125 C 16.3125 -4.375 12.425781 -8.03125 9.96875 -12.75 C 7.519531 -17.476562 6.296875 -24.460938 6.296875 -33.703125 L 6.296875 -79.171875 Z M 26.875 -79.171875 "></path></g></g></g></svg>